<svg width="14" height="12" viewBox="0 0 14 12" fill="none" xmlns="http://www.w3.org/2000/svg">
<path d="M13.7188 6.71875L8.71875 11.7188C8.51042 11.9062 8.27083 12 8 12C7.72917 12 7.48958 11.9062 7.28125 11.7188C7.09375 11.5104 7 11.2708 7 11C7 10.7292 7.09375 10.4896 7.28125 10.2812L10.5938 7H1C0.708333 7 0.46875 6.90625 0.28125 6.71875C0.09375 6.53125 0 6.29167 0 6C0 5.70833 0.09375 5.46875 0.28125 5.28125C0.46875 5.09375 0.708333 5 1 5H10.5938L7.28125 1.71875C7.09375 1.51042 7 1.27083 7 1C7 0.729167 7.09375 0.489583 7.28125 0.28125C7.48958 0.09375 7.72917 0 8 0C8.27083 0 8.51042 0.09375 8.71875 0.28125L13.7188 5.28125C13.9062 5.48958 14 5.72917 14 6C14 6.27083 13.9062 6.51042 13.7188 6.71875Z" fill="#0A192F"/>
</svg>
