<svg width="24" height="18" viewBox="0 0 24 18" fill="none" xmlns="http://www.w3.org/2000/svg">
<path d="M10.125 0C9.4375 0.0625 9.0625 0.4375 9 1.125C9.0625 1.8125 9.4375 2.1875 10.125 2.25H10.875V3.79688C8.1875 4.14062 5.96875 5.28125 4.21875 7.21875C2.46875 9.125 1.5625 11.4688 1.5 14.25H22.5C22.4375 11.4688 21.5312 9.125 19.7812 7.21875C18.0312 5.28125 15.8125 4.14062 13.125 3.79688V2.25H13.875C14.5625 2.1875 14.9375 1.8125 15 1.125C14.9375 0.4375 14.5625 0.0625 13.875 0H12H10.125ZM1.125 15.75C0.4375 15.8125 0.0625 16.1875 0 16.875C0.0625 17.5625 0.4375 17.9375 1.125 18H22.875C23.5625 17.9375 23.9375 17.5625 24 16.875C23.9375 16.1875 23.5625 15.8125 22.875 15.75H1.125Z" fill="#4B5563"/>
</svg>
