<svg width="23" height="18" viewBox="0 0 23 18" fill="none" xmlns="http://www.w3.org/2000/svg">
<path d="M9.76562 17.1875C9.97396 17.2396 10.1693 17.2005 10.3516 17.0703C10.5339 16.9661 10.625 16.7969 10.625 16.5625V1.83594C10.625 1.65365 10.5599 1.51042 10.4297 1.40625C10.0391 1.06771 9.42708 0.755208 8.59375 0.46875C7.76042 0.182292 6.77083 0.0260417 5.625 0C4.63542 0 3.71094 0.104167 2.85156 0.3125C1.99219 0.520833 1.27604 0.729167 0.703125 0.9375C0.260417 1.14583 0.0260417 1.51042 0 2.03125V16.4844C0 16.7188 0.104167 16.901 0.3125 17.0312C0.494792 17.1615 0.703125 17.2005 0.9375 17.1484C1.58854 16.9141 2.33073 16.7057 3.16406 16.5234C4.02344 16.3411 4.84375 16.25 5.625 16.25C6.30208 16.276 7.03125 16.3802 7.8125 16.5625C8.56771 16.7708 9.21875 16.9792 9.76562 17.1875ZM12.7344 17.1875C13.2812 16.9792 13.9323 16.7708 14.6875 16.5625C15.4688 16.3802 16.1979 16.276 16.875 16.25C17.6562 16.25 18.4766 16.3411 19.3359 16.5234C20.1693 16.7057 20.9115 16.9141 21.5625 17.1484C21.7969 17.2005 22.0052 17.1615 22.1875 17.0312C22.3958 16.901 22.5 16.7188 22.5 16.4844V2.03125C22.474 1.51042 22.2396 1.14583 21.7969 0.9375C21.224 0.729167 20.5078 0.520833 19.6484 0.3125C18.7891 0.104167 17.8646 0 16.875 0C15.7292 0.0260417 14.7396 0.182292 13.9062 0.46875C13.0729 0.755208 12.4609 1.06771 12.0703 1.40625C11.9401 1.51042 11.875 1.65365 11.875 1.83594V16.5625C11.875 16.7969 11.9661 16.9661 12.1484 17.0703C12.3307 17.2005 12.526 17.2396 12.7344 17.1875Z" fill="#6B7280"/>
</svg>
