<svg width="12" height="16" viewBox="0 0 12 16" fill="none" xmlns="http://www.w3.org/2000/svg">
<path d="M0 1.5C0.0208333 1.08333 0.166667 0.729167 0.4375 0.4375C0.729167 0.166667 1.08333 0.0208333 1.5 0V1.5V13.7812L5.5625 10.9062C5.85417 10.7188 6.14583 10.7188 6.4375 10.9062L10.5 13.7812V1.5H1.5V0H10.5C10.9167 0.0208333 11.2708 0.166667 11.5625 0.4375C11.8333 0.729167 11.9792 1.08333 12 1.5V15.25C12 15.5417 11.8646 15.7604 11.5938 15.9062C11.3229 16.0312 11.0625 16.0208 10.8125 15.875L6 12.4375L1.1875 15.875C0.9375 16.0208 0.677083 16.0312 0.40625 15.9062C0.15625 15.7604 0.0208333 15.5417 0 15.25V1.5Z" fill="#9CA3AF"/>
</svg>
