<svg width="11" height="14" viewBox="0 0 11 14" fill="none" xmlns="http://www.w3.org/2000/svg">
<path d="M9.1875 0C9.55208 0.0182292 9.86198 0.145833 10.1172 0.382812C10.3542 0.638021 10.4818 0.947917 10.5 1.3125V12.6875C10.4818 13.0521 10.3542 13.362 10.1172 13.6172C9.86198 13.8542 9.55208 13.9818 9.1875 14H6.5625V11.8125C6.54427 11.4479 6.41667 11.138 6.17969 10.8828C5.92448 10.6458 5.61458 10.5182 5.25 10.5C4.88542 10.5182 4.57552 10.6458 4.32031 10.8828C4.08333 11.138 3.95573 11.4479 3.9375 11.8125V14H1.3125C0.947917 13.9818 0.638021 13.8542 0.382812 13.6172C0.145833 13.362 0.0182292 13.0521 0 12.6875V1.3125C0.0182292 0.947917 0.145833 0.638021 0.382812 0.382812C0.638021 0.145833 0.947917 0.0182292 1.3125 0H9.1875ZM1.75 7.4375C1.76823 7.71094 1.91406 7.85677 2.1875 7.875H3.0625C3.33594 7.85677 3.48177 7.71094 3.5 7.4375V6.5625C3.48177 6.28906 3.33594 6.14323 3.0625 6.125H2.1875C1.91406 6.14323 1.76823 6.28906 1.75 6.5625V7.4375ZM4.8125 6.125C4.53906 6.14323 4.39323 6.28906 4.375 6.5625V7.4375C4.39323 7.71094 4.53906 7.85677 4.8125 7.875H5.6875C5.96094 7.85677 6.10677 7.71094 6.125 7.4375V6.5625C6.10677 6.28906 5.96094 6.14323 5.6875 6.125H4.8125ZM7 7.4375C7.01823 7.71094 7.16406 7.85677 7.4375 7.875H8.3125C8.58594 7.85677 8.73177 7.71094 8.75 7.4375V6.5625C8.73177 6.28906 8.58594 6.14323 8.3125 6.125H7.4375C7.16406 6.14323 7.01823 6.28906 7 6.5625V7.4375ZM2.1875 2.625C1.91406 2.64323 1.76823 2.78906 1.75 3.0625V3.9375C1.76823 4.21094 1.91406 4.35677 2.1875 4.375H3.0625C3.33594 4.35677 3.48177 4.21094 3.5 3.9375V3.0625C3.48177 2.78906 3.33594 2.64323 3.0625 2.625H2.1875ZM4.375 3.9375C4.39323 4.21094 4.53906 4.35677 4.8125 4.375H5.6875C5.96094 4.35677 6.10677 4.21094 6.125 3.9375V3.0625C6.10677 2.78906 5.96094 2.64323 5.6875 2.625H4.8125C4.53906 2.64323 4.39323 2.78906 4.375 3.0625V3.9375ZM7.4375 2.625C7.16406 2.64323 7.01823 2.78906 7 3.0625V3.9375C7.01823 4.21094 7.16406 4.35677 7.4375 4.375H8.3125C8.58594 4.35677 8.73177 4.21094 8.75 3.9375V3.0625C8.73177 2.78906 8.58594 2.64323 8.3125 2.625H7.4375Z" fill="#C6B273"/>
</svg>
