<svg width="27" height="30" viewBox="0 0 27 30" fill="none" xmlns="http://www.w3.org/2000/svg">
<path d="M12.6562 23.9062C12.0312 24.4922 11.3867 24.4922 10.7227 23.9062L6.97266 20.1562C6.42578 19.5312 6.42578 18.8867 6.97266 18.2227C7.63672 17.6758 8.28125 17.6758 8.90625 18.2227L11.7188 20.9766L17.2852 15.4102C17.9492 14.8633 18.5938 14.8633 19.2188 15.4102C19.8047 16.0742 19.8047 16.7188 19.2188 17.3438L12.6562 23.9062ZM7.5 0C8.35938 0.078125 8.82812 0.546875 8.90625 1.40625V3.75H17.3438V1.40625C17.4219 0.546875 17.8906 0.078125 18.75 0C19.6094 0.078125 20.0781 0.546875 20.1562 1.40625V3.75H22.5C23.5547 3.78906 24.4336 4.16016 25.1367 4.86328C25.8398 5.56641 26.2109 6.44531 26.25 7.5V26.25C26.2109 27.3047 25.8398 28.1836 25.1367 28.8867C24.4336 29.5898 23.5547 29.9609 22.5 30H3.75C2.69531 29.9609 1.81641 29.5898 1.11328 28.8867C0.410156 28.1836 0.0390625 27.3047 0 26.25V7.5C0.0390625 6.44531 0.410156 5.56641 1.11328 4.86328C1.81641 4.16016 2.69531 3.78906 3.75 3.75H6.09375V1.40625C6.17188 0.546875 6.64062 0.078125 7.5 0ZM23.4375 11.25H2.8125V26.25C2.85156 26.8359 3.16406 27.1484 3.75 27.1875H22.5C23.0859 27.1484 23.3984 26.8359 23.4375 26.25V11.25Z" fill="#C6B273"/>
</svg>
