<svg width="30" height="24" viewBox="0 0 30 24" fill="none" xmlns="http://www.w3.org/2000/svg">
<path d="M19.5 8.25C19.4375 10.5938 18.4844 12.5312 16.6406 14.0625C14.7969 15.625 12.5 16.4375 9.75 16.5C7.9375 16.4688 6.29688 16.0938 4.82812 15.375C4.48438 15.5625 4.09375 15.75 3.65625 15.9375C2.78125 16.2812 1.8125 16.4688 0.75 16.5C0.40625 16.4688 0.171875 16.2969 0.046875 15.9844C-0.046875 15.6406 0.046875 15.3594 0.328125 15.1406C0.328125 15.1406 0.328125 15.125 0.328125 15.0938C0.359375 15.0938 0.375 15.0938 0.375 15.0938C0.40625 15.0625 0.46875 15 0.5625 14.9062C0.75 14.75 0.96875 14.5312 1.21875 14.25C1.46875 13.9062 1.6875 13.5156 1.875 13.0781C0.65625 11.7031 0.03125 10.0938 0 8.25C0.0625 5.90625 1.01562 3.96875 2.85938 2.4375C4.70312 0.875 7 0.0625 9.75 0C12.5 0.0625 14.7969 0.875 16.6406 2.4375C18.4844 3.96875 19.4375 5.90625 19.5 8.25ZM10.875 17.9531C13.6875 17.6719 16.0625 16.6562 18 14.9062C19.9062 13.1562 20.9062 10.9375 21 8.25C21 8 20.9844 7.76562 20.9531 7.54688C23.5469 7.73438 25.6875 8.59375 27.375 10.125C29.0625 11.6562 29.9375 13.5312 30 15.75C29.9688 17.5938 29.3438 19.2031 28.125 20.5781C28.3125 21.0469 28.5469 21.4375 28.8281 21.75C29.0469 22.0312 29.25 22.25 29.4375 22.4062C29.5312 22.5 29.5938 22.5625 29.625 22.5938C29.6562 22.625 29.6719 22.6406 29.6719 22.6406H29.7188C29.9688 22.8594 30.0469 23.1406 29.9531 23.4844C29.8281 23.8281 29.5938 24 29.25 24C28.1875 23.9688 27.2188 23.7812 26.3438 23.4375C25.9062 23.25 25.5156 23.0625 25.1719 22.875C23.7031 23.5938 22.0625 23.9688 20.25 24C17.9688 23.9688 15.9844 23.3906 14.2969 22.2656C12.6094 21.1719 11.4688 19.7344 10.875 17.9531ZM10.6875 3.375C10.625 2.8125 10.3125 2.5 9.75 2.4375C9.1875 2.5 8.875 2.8125 8.8125 3.375V4.03125C8.4375 4.09375 8.09375 4.23438 7.78125 4.45312C7.03125 4.82812 6.625 5.5 6.5625 6.46875C6.65625 7.40625 7.04688 8.04688 7.73438 8.39062C8.29688 8.70312 8.84375 8.92188 9.375 9.04688L9.46875 9.09375C10.0625 9.25 10.5 9.40625 10.7812 9.5625C11 9.71875 11.0938 9.84375 11.0625 9.9375C11.0625 10.1875 10.9688 10.3594 10.7812 10.4531C10.5312 10.6094 10.2031 10.6875 9.79688 10.6875C9.29688 10.6562 8.75 10.5156 8.15625 10.2656C8.03125 10.2344 7.90625 10.2031 7.78125 10.1719C7.21875 10.0469 6.82812 10.2344 6.60938 10.7344C6.48438 11.2969 6.6875 11.7031 7.21875 11.9531C7.3125 11.9844 7.40625 12.0156 7.5 12.0469C7.875 12.2031 8.3125 12.3281 8.8125 12.4219V13.125C8.875 13.6875 9.1875 14 9.75 14.0625C10.3125 14 10.625 13.6875 10.6875 13.125V12.4688C11.0625 12.4062 11.4219 12.2656 11.7656 12.0469C12.4844 11.6406 12.875 10.9375 12.9375 9.9375C12.8438 9 12.4531 8.35938 11.7656 8.01562C11.2031 7.67188 10.625 7.4375 10.0312 7.3125L9.98438 7.26562C9.42188 7.10938 8.98438 6.95312 8.67188 6.79688C8.48438 6.67188 8.40625 6.5625 8.4375 6.46875C8.40625 6.3125 8.5 6.17188 8.71875 6.04688C9 5.89062 9.34375 5.8125 9.75 5.8125C10.1875 5.8125 10.6719 5.89062 11.2031 6.04688C11.7656 6.14062 12.1406 5.92188 12.3281 5.39062C12.4219 4.82812 12.2031 4.4375 11.6719 4.21875C11.3594 4.15625 11.0312 4.09375 10.6875 4.03125V3.375Z" fill="#4B5563"/>
</svg>
