<svg width="24" height="24" viewBox="0 0 24 24" fill="none" xmlns="http://www.w3.org/2000/svg">
<path d="M8.25 1.125C8.1875 0.4375 7.8125 0.0625 7.125 0C6.4375 0.0625 6.0625 0.4375 6 1.125V3C5.15625 3.03125 4.45312 3.32812 3.89062 3.89062C3.32812 4.45312 3.03125 5.15625 3 6H1.125C0.4375 6.0625 0.0625 6.4375 0 7.125C0.0625 7.8125 0.4375 8.1875 1.125 8.25H3V10.875H1.125C0.4375 10.9375 0.0625 11.3125 0 12C0.0625 12.6875 0.4375 13.0625 1.125 13.125H3V15.75H1.125C0.4375 15.8125 0.0625 16.1875 0 16.875C0.0625 17.5625 0.4375 17.9375 1.125 18H3C3.03125 18.8438 3.32812 19.5469 3.89062 20.1094C4.45312 20.6719 5.15625 20.9688 6 21V22.875C6.0625 23.5625 6.4375 23.9375 7.125 24C7.8125 23.9375 8.1875 23.5625 8.25 22.875V21H10.875V22.875C10.9375 23.5625 11.3125 23.9375 12 24C12.6875 23.9375 13.0625 23.5625 13.125 22.875V21H15.75V22.875C15.8125 23.5625 16.1875 23.9375 16.875 24C17.5625 23.9375 17.9375 23.5625 18 22.875V21C18.8438 20.9688 19.5469 20.6719 20.1094 20.1094C20.6719 19.5469 20.9688 18.8438 21 18H22.875C23.5625 17.9375 23.9375 17.5625 24 16.875C23.9375 16.1875 23.5625 15.8125 22.875 15.75H21V13.125H22.875C23.5625 13.0625 23.9375 12.6875 24 12C23.9375 11.3125 23.5625 10.9375 22.875 10.875H21V8.25H22.875C23.5625 8.1875 23.9375 7.8125 24 7.125C23.9375 6.4375 23.5625 6.0625 22.875 6H21C20.9688 5.15625 20.6719 4.45312 20.1094 3.89062C19.5469 3.32812 18.8438 3.03125 18 3V1.125C17.9375 0.4375 17.5625 0.0625 16.875 0C16.1875 0.0625 15.8125 0.4375 15.75 1.125V3H13.125V1.125C13.0625 0.4375 12.6875 0.0625 12 0C11.3125 0.0625 10.9375 0.4375 10.875 1.125V3H8.25V1.125ZM7.5 6H16.5C16.9375 6 17.2969 6.14062 17.5781 6.42188C17.8594 6.70312 18 7.0625 18 7.5V16.5C18 16.9375 17.8594 17.2969 17.5781 17.5781C17.2969 17.8594 16.9375 18 16.5 18H7.5C7.0625 18 6.70312 17.8594 6.42188 17.5781C6.14062 17.2969 6 16.9375 6 16.5V7.5C6 7.0625 6.14062 6.70312 6.42188 6.42188C6.70312 6.14062 7.0625 6 7.5 6ZM16.5 7.5H7.5V16.5H16.5V7.5Z" fill="#4B5563"/>
</svg>
