<svg width="24" height="24" viewBox="0 0 24 24" fill="none" xmlns="http://www.w3.org/2000/svg">
<path d="M19.6665 10.8333C19.2418 10.8331 18.8195 10.8955 18.413 11.0184L16.0209 5.49998H18.4997C18.6315 5.49871 18.7574 5.44547 18.8502 5.35184C18.9429 5.25821 18.9949 5.13177 18.9949 4.99999C18.9949 4.86822 18.9429 4.74177 18.8502 4.64814C18.7574 4.55452 18.6315 4.50128 18.4997 4.5H15.2593C15.1764 4.50001 15.0948 4.52064 15.0218 4.56003C14.9488 4.59941 14.8868 4.65633 14.8413 4.72564C14.7958 4.79495 14.7683 4.87449 14.7612 4.9571C14.754 5.03971 14.7676 5.12279 14.8006 5.19886L16.0344 8.04548H9.45788L8.35459 5.50017H9.9999C10.066 5.50081 10.1315 5.48835 10.1927 5.46351C10.254 5.43867 10.3096 5.40194 10.3566 5.35545C10.4035 5.30896 10.4408 5.25362 10.4662 5.19265C10.4917 5.13167 10.5048 5.06625 10.5048 5.00018C10.5048 4.93411 10.4917 4.86869 10.4662 4.80771C10.4408 4.74673 10.4035 4.6914 10.3566 4.64491C10.3096 4.59842 10.254 4.56169 10.1927 4.53685C10.1315 4.51201 10.066 4.49955 9.9999 4.50019H5.50196C5.3702 4.50146 5.24426 4.5547 5.15153 4.64833C5.05881 4.74196 5.00679 4.86841 5.00679 5.00018C5.00679 5.13195 5.05881 5.2584 5.15153 5.35203C5.24426 5.44566 5.3702 5.4989 5.50196 5.50017H7.26446L8.55695 8.48208L6.45226 11.3883C5.64103 10.9335 4.705 10.7519 3.78254 10.8702C2.86009 10.9884 2.00017 11.4004 1.32993 12.0452C0.659696 12.6899 0.214707 13.5332 0.060756 14.4504C-0.0931948 15.3676 0.0520641 16.3099 0.475057 17.1382C0.89805 17.9664 1.57633 18.6366 2.40961 19.0496C3.24288 19.4626 4.18694 19.5965 5.1022 19.4315C6.01745 19.2665 6.85533 18.8114 7.49196 18.1334C8.12859 17.4555 8.53017 16.5907 8.63734 15.6668H11.9998C12.0788 15.6669 12.1567 15.6481 12.2271 15.6122C12.2975 15.5763 12.3584 15.5241 12.4047 15.4601L16.686 9.54844L17.4961 11.4172C16.587 11.944 15.9005 12.7833 15.5642 13.7787C15.228 14.7741 15.265 15.8578 15.6684 16.8279C16.0718 17.7981 16.814 18.5885 17.7568 19.0521C18.6997 19.5157 19.7789 19.6208 20.7935 19.3478C21.8081 19.0749 22.6889 18.4424 23.2718 17.5683C23.8548 16.6942 24.1002 15.638 23.9623 14.5964C23.8244 13.5549 23.3127 12.5989 22.5224 11.9066C21.732 11.2143 20.717 10.8328 19.6664 10.8332L19.6665 10.8333ZM9.01942 9.54844L11.2378 14.6666H8.63743C8.51722 13.6334 8.02877 12.678 7.26156 11.9756L9.01942 9.54844ZM7.62887 14.6667H5.31264L6.67009 12.7925C7.18409 13.297 7.52053 13.9547 7.62887 14.6667ZM4.33314 18.5C3.82829 18.5004 3.32994 18.3862 2.87569 18.1659C2.42145 17.9456 2.02318 17.625 1.71094 17.2283C1.3987 16.8316 1.18066 16.3691 1.07326 15.8758C0.965854 15.3825 0.971904 14.8713 1.09095 14.3807C1.20999 13.8901 1.43892 13.4329 1.76046 13.0437C2.082 12.6545 2.48774 12.3434 2.94707 12.1339C3.4064 11.9244 3.90732 11.822 4.41202 11.8344C4.91671 11.8467 5.412 11.9736 5.86051 12.2054L3.92818 14.8734C3.87412 14.9481 3.84174 15.0362 3.83461 15.1281C3.82748 15.2199 3.84588 15.312 3.88778 15.3941C3.92968 15.4761 3.99344 15.545 4.07204 15.5931C4.15063 15.6413 4.24099 15.6667 4.33314 15.6667H7.62892C7.5083 16.4547 7.10972 17.1735 6.50524 17.6931C5.90076 18.2128 5.13028 18.499 4.33314 18.5ZM12.1094 14.163L9.89124 9.04547H15.8156L12.1094 14.163ZM19.6665 18.5C18.943 18.5003 18.2391 18.2651 17.6611 17.83C17.0832 17.3949 16.6625 16.7834 16.4627 16.0881C16.2629 15.3928 16.2949 14.6514 16.5537 13.9758C16.8126 13.3002 17.2842 12.7273 17.8975 12.3435L19.2075 15.3656C19.261 15.486 19.36 15.5804 19.4828 15.6282C19.6056 15.6761 19.7423 15.6735 19.8632 15.6211C19.9841 15.5687 20.0794 15.4707 20.1284 15.3483C20.1774 15.226 20.1762 15.0893 20.1249 14.9679L18.8143 11.9445C19.2726 11.8233 19.7514 11.8013 20.2188 11.8799C20.6863 11.9584 21.1316 12.1358 21.5251 12.4001C21.9185 12.6644 22.2511 13.0096 22.5006 13.4127C22.75 13.8157 22.9107 14.2673 22.9718 14.7374C23.0329 15.2074 22.993 15.6851 22.8549 16.1385C22.7167 16.5919 22.4835 17.0107 22.1706 17.3668C21.8578 17.7229 21.4727 18.0082 21.0408 18.2037C20.609 18.3992 20.1405 18.5003 19.6665 18.5003V18.5Z" fill="#C6B273"/>
</svg>
