<svg width="24" height="21" viewBox="0 0 24 21" fill="none" xmlns="http://www.w3.org/2000/svg">
<path d="M1.5 0C1.0625 0 0.703125 0.140625 0.421875 0.421875C0.140625 0.703125 0 1.0625 0 1.5V12.75V15V18.75C0.03125 19.375 0.25 19.9062 0.65625 20.3438C1.09375 20.75 1.625 20.9688 2.25 21H21.75C22.375 20.9688 22.9062 20.75 23.3438 20.3438C23.75 19.9062 23.9688 19.375 24 18.75V12.75V5.625C23.9688 5.1875 23.7812 4.875 23.4375 4.6875C23.0938 4.46875 22.7344 4.45312 22.3594 4.64062L15 8.57812V5.625C14.9688 5.1875 14.7812 4.875 14.4375 4.6875C14.0938 4.46875 13.7344 4.45312 13.3594 4.64062L6 8.57812V1.5C6 1.0625 5.85938 0.703125 5.57812 0.421875C5.29688 0.140625 4.9375 0 4.5 0H1.5Z" fill="#4B5563"/>
</svg>
