<svg width="24" height="24" viewBox="0 0 24 24" fill="none" xmlns="http://www.w3.org/2000/svg">
<path d="M2.25 18.75L4.2 15.6C5.325 13.875 7.2 12.75 9.3 12.75H14.25C14.25 14.4 12.9 15.75 11.25 15.75H9.75" stroke="#C6B273" stroke-width="2" stroke-miterlimit="10" stroke-linecap="round" stroke-linejoin="round"/>
<path d="M12 15.75H17.25L18.15 14.55C18.975 13.425 20.325 12.75 21.75 12.75L19.725 16.35C18.675 18.3 16.575 19.5 14.4 19.5C10.875 19.5 7.425 20.55 4.5 22.5" stroke="#C6B273" stroke-width="2" stroke-miterlimit="10" stroke-linecap="round" stroke-linejoin="round"/>
<path d="M13.5 7.5C13.5 4.575 15.825 2.25 18.75 2.25C18.75 5.175 16.425 7.5 13.5 7.5Z" stroke="#C6B273" stroke-width="2" stroke-miterlimit="10" stroke-linecap="round" stroke-linejoin="round"/>
<path d="M13.5 9.75C10.575 9.75 8.25 7.425 8.25 4.5C11.175 4.5 13.5 6.825 13.5 9.75Z" stroke="#C6B273" stroke-width="2" stroke-miterlimit="10" stroke-linecap="round" stroke-linejoin="round"/>
<path d="M13.5 1.5V12.75" stroke="#C6B273" stroke-width="2" stroke-miterlimit="10" stroke-linecap="round" stroke-linejoin="round"/>
</svg>
