<svg width="30" height="28" viewBox="0 0 30 28" fill="none" xmlns="http://www.w3.org/2000/svg">
<path d="M21 22.3333H27.6667V19.6667C27.6665 17.9627 26.587 16.4459 24.977 15.8877C23.367 15.3295 21.5802 15.8525 20.5253 17.1907M21 22.3333H7.66667M21 22.3333V19.6667C21 18.792 20.832 17.956 20.5253 17.1907M7.66667 22.3333H1V19.6667C1.00012 17.9627 2.07972 16.4459 3.68967 15.8877C5.29962 15.3295 7.08645 15.8525 8.14133 17.1907M7.66667 22.3333V19.6667C7.66667 18.792 7.83467 17.956 8.14133 17.1907M8.14133 17.1907C9.15437 14.659 11.6065 12.9991 14.3333 12.9991C17.0601 12.9991 19.5123 14.659 20.5253 17.1907M18.3333 5C18.3333 7.20766 16.541 9 14.3333 9C12.1257 9 10.3333 7.20766 10.3333 5C10.3333 2.79234 12.1257 1 14.3333 1C16.541 1 18.3333 2.79234 18.3333 5L21 22.3333M29 26.3333C29 27.8051 27.8051 29 26.3333 29C24.8616 29 23.6667 27.8051 23.6667 26.3333C23.6667 24.8616 24.8616 23.6667 26.3333 23.6667C27.8051 23.6667 29 24.8616 29 26.3333V26.3333M7.66667 9C7.66667 10.4718 6.47177 11.6667 5 11.6667C3.52823 11.6667 2.33333 10.4718 2.33333 9C2.33333 7.52823 3.52823 6.33333 5 6.33333C6.47177 6.33333 7.66667 7.52823 7.66667 9V9" stroke="#C6B273" stroke-width="2" stroke-linecap="round" stroke-linejoin="round"/>
</svg>
