<svg width="30" height="30" viewBox="0 0 30 30" fill="none" xmlns="http://www.w3.org/2000/svg">
<path d="M20.625 15.0037C20.625 16.2927 20.5664 17.5427 20.4492 18.7537H9.55078C9.43359 17.5427 9.35547 16.2927 9.31641 15.0037C9.35547 13.7146 9.43359 12.4646 9.55078 11.2537H20.4492C20.5664 12.4646 20.625 13.7146 20.625 15.0037ZM29.5312 11.2537C29.8438 12.4646 30 13.7146 30 15.0037C30 16.2927 29.8438 17.5427 29.5312 18.7537H22.3242C22.4414 17.5037 22.5 16.2537 22.5 15.0037C22.5 13.7146 22.4414 12.4646 22.3242 11.2537H29.5312ZM28.8867 9.37866H22.0898C21.4648 5.55054 20.3711 2.58179 18.8086 0.472412C21.1523 1.13647 23.2031 2.23022 24.9609 3.75366C26.6797 5.31616 27.9883 7.19116 28.8867 9.37866ZM20.1562 9.37866H9.84375C10.1953 7.23022 10.7227 5.37476 11.4258 3.81226C12.0508 2.44507 12.6953 1.44897 13.3594 0.823975C14.0234 0.238037 14.5703 -0.0354004 15 0.00366211C15.4297 -0.0354004 15.9766 0.238037 16.6406 0.823975C17.3047 1.44897 17.9492 2.44507 18.5742 3.81226C19.2773 5.37476 19.8047 7.23022 20.1562 9.37866ZM1.11328 9.37866C2.01172 7.19116 3.32031 5.31616 5.03906 3.75366C6.79688 2.23022 8.84766 1.13647 11.1914 0.472412C9.62891 2.58179 8.53516 5.55054 7.91016 9.37866H1.11328ZM7.67578 11.2537C7.55859 12.4646 7.48047 13.7146 7.44141 15.0037C7.48047 16.2537 7.55859 17.5037 7.67578 18.7537H0.46875C0.15625 17.5427 0 16.2927 0 15.0037C0 13.7146 0.15625 12.4646 0.46875 11.2537H7.67578ZM11.4258 26.1951C10.7227 24.6326 10.1953 22.7771 9.84375 20.6287H20.1562C19.8047 22.7771 19.2773 24.6326 18.5742 26.1951C17.9492 27.5623 17.3047 28.5583 16.6406 29.1833C15.9766 29.7693 15.4102 30.0427 14.9414 30.0037C14.5508 30.0427 14.0234 29.7693 13.3594 29.1833C12.6953 28.5583 12.0508 27.5623 11.4258 26.1951ZM11.1914 29.5349C8.84766 28.8708 6.79688 27.7771 5.03906 26.2537C3.32031 24.6912 2.01172 22.8162 1.11328 20.6287H7.91016C8.53516 24.4568 9.62891 27.4255 11.1914 29.5349ZM18.8086 29.5349C20.3711 27.4255 21.4648 24.4568 22.0898 20.6287H28.8867C27.9883 22.8162 26.6797 24.6912 24.9609 26.2537C23.2031 27.7771 21.1523 28.8708 18.8086 29.5349Z" fill="#C6B273"/>
</svg>
