<svg width="24" height="24" viewBox="0 0 24 24" fill="none" xmlns="http://www.w3.org/2000/svg">
<path d="M10 20.016V7.8465L18.924 4.5L10 1.1535V0.5C10 0.2235 9.7765 0 9.5 0C9.2235 0 9 0.2235 9 0.5V20.016C7.1885 20.1215 5.5 20.7975 5.5 22C5.5 23.313 7.512 24 9.5 24C11.488 24 13.5 23.313 13.5 22C13.5 20.7975 11.8115 20.1215 10 20.016ZM10 2.2215L16.076 4.5L10 6.7785V2.2215ZM9.5 23C7.639 23 6.5 22.3525 6.5 22C6.5 21.6805 7.441 21.1245 9 21.0215V22C9 22.2765 9.2235 22.5 9.5 22.5C9.7765 22.5 10 22.2765 10 22V21.0215C11.559 21.1245 12.5 21.6805 12.5 22C12.5 22.3525 11.361 23 9.5 23ZM18 21.5C18 22.328 17.3285 23 16.5 23C15.6715 23 15 22.328 15 21.5C15 20.671 15.6715 20 16.5 20C17.3285 20 18 20.671 18 21.5Z" fill="#C6B273"/>
</svg>
