<svg width="21" height="29" viewBox="0 0 21 29" fill="none" xmlns="http://www.w3.org/2000/svg">
<path d="M18 3V9H12V3H18ZM18 12V18H12V12H18ZM9 9H3V3H9V9ZM3 12H9V18H3V12ZM3 0C2.15625 0.03125 1.45312 0.328125 0.890625 0.890625C0.328125 1.45312 0.03125 2.15625 0 3V18C0.03125 18.8438 0.328125 19.5469 0.890625 20.1094C1.45312 20.6719 2.15625 20.9688 3 21H18C18.8438 20.9688 19.5469 20.6719 20.1094 20.1094C20.6719 19.5469 20.9688 18.8438 21 18V3C20.9688 2.15625 20.6719 1.45312 20.1094 0.890625C19.5469 0.328125 18.8438 0.03125 18 0H3Z" fill="#C6B273"/>
</svg>
