<svg width="24" height="24" viewBox="0 0 24 24" fill="none" xmlns="http://www.w3.org/2000/svg">
<path d="M10.5 7.5H12L13.5 6L15 9L16.5 5.25L18 7.5" stroke="#C6B273" stroke-width="2" stroke-miterlimit="10" stroke-linecap="round" stroke-linejoin="round"/>
<path d="M2.25 18.75L4.2 15.6C5.325 13.875 7.2 12.75 9.3 12.75H14.25C14.25 14.4 12.9 15.75 11.25 15.75H9.75" stroke="#C6B273" stroke-width="2" stroke-miterlimit="10" stroke-linecap="round" stroke-linejoin="round"/>
<path d="M11.25 15.75H17.25L18.15 14.55C18.975 13.425 20.325 12.75 21.75 12.75L19.725 16.35C18.675 18.3 16.575 19.5 14.4 19.5C10.875 19.5 7.425 20.55 4.5 22.5" stroke="#C6B273" stroke-width="2" stroke-miterlimit="10" stroke-linecap="round" stroke-linejoin="round"/>
<path d="M12.075 12.75L8.775 9.22498L7.875 8.24998C6.375 6.67498 6.375 4.19998 7.875 2.62498C9.375 1.04998 11.85 1.04998 13.35 2.62498L14.1 3.37498C14.175 3.44998 14.325 3.44998 14.4 3.37498L15.15 2.62498C16.65 1.04998 19.125 1.04998 20.625 2.62498C22.125 4.19998 22.125 6.67498 20.625 8.24998L19.725 9.22498L16.5 12.525L14.4 14.7" stroke="#C6B273" stroke-width="2" stroke-miterlimit="10" stroke-linecap="round" stroke-linejoin="round"/>
</svg>
