<svg width="24" height="21" viewBox="0 0 24 21" fill="none" xmlns="http://www.w3.org/2000/svg">
<path d="M10.6875 20L2.25 12.0781C2.03125 11.9219 1.84375 11.7344 1.6875 11.5156H5.76562C6.89062 11.4531 7.6875 10.9219 8.15625 9.92188L8.67188 8.70312L10.9688 13.8594C11.1875 14.2656 11.5312 14.4844 12 14.5156C12.4375 14.5156 12.7812 14.3125 13.0312 13.9062L15 9.92188L15.0938 10.0625C15.5938 11 16.375 11.4844 17.4375 11.5156H22.3125C22.1562 11.7344 21.9688 11.9375 21.75 12.125L13.3125 20C12.9375 20.3438 12.5 20.5156 12 20.5156C11.5 20.5156 11.0625 20.3438 10.6875 20ZM23.625 9.26562H17.4375C17.2812 9.26562 17.1719 9.20312 17.1094 9.07812L15.9844 6.875C15.7656 6.5 15.4375 6.29688 15 6.26562C14.5312 6.29688 14.1875 6.5 13.9688 6.875L12.0469 10.7656L9.65625 5.42188C9.4375 4.98438 9.09375 4.76562 8.625 4.76562C8.125 4.79688 7.78125 5.03125 7.59375 5.46875L6.09375 9.03125C6.03125 9.1875 5.92188 9.26562 5.76562 9.26562H0.75C0.625 9.26562 0.515625 9.28125 0.421875 9.3125C0.140625 8.5625 0 7.78125 0 6.96875V6.6875C0.03125 5 0.5625 3.5625 1.59375 2.375C2.625 1.15625 3.95312 0.390625 5.57812 0.078125C6.67188 -0.078125 7.73438 0 8.76562 0.3125C9.76562 0.625 10.6562 1.17188 11.4375 1.95312L12 2.51562L12.5625 1.95312C13.3438 1.17188 14.2344 0.625 15.2344 0.3125C16.2656 0 17.3281 -0.078125 18.4219 0.078125C20.0469 0.390625 21.375 1.15625 22.4062 2.375C23.4375 3.5625 23.9688 5 24 6.6875V6.96875C24 7.75 23.875 8.51562 23.625 9.26562Z" fill="#4B5563"/>
</svg>
