<svg width="14" height="14" viewBox="0 0 14 14" fill="none" xmlns="http://www.w3.org/2000/svg">
<path d="M7 3.40625C5.97917 3.42708 5.13542 3.78125 4.46875 4.46875C3.78125 5.13542 3.42708 5.97917 3.40625 7C3.42708 8.02083 3.78125 8.86458 4.46875 9.53125C5.13542 10.2188 5.97917 10.5729 7 10.5938C8.02083 10.5729 8.86458 10.2188 9.53125 9.53125C10.2188 8.86458 10.5729 8.02083 10.5938 7C10.5729 5.97917 10.2188 5.13542 9.53125 4.46875C8.86458 3.78125 8.02083 3.42708 7 3.40625ZM7 9.34375C6.33333 9.32292 5.78125 9.09375 5.34375 8.65625C4.90625 8.21875 4.67708 7.66667 4.65625 7C4.67708 6.33333 4.90625 5.78125 5.34375 5.34375C5.78125 4.90625 6.33333 4.67708 7 4.65625C7.66667 4.67708 8.21875 4.90625 8.65625 5.34375C9.09375 5.78125 9.32292 6.33333 9.34375 7C9.32292 7.66667 9.09375 8.21875 8.65625 8.65625C8.21875 9.09375 7.66667 9.32292 7 9.34375ZM11.5938 3.25C11.5312 3.77083 11.25 4.05208 10.75 4.09375C10.2292 4.05208 9.94792 3.77083 9.90625 3.25C9.90625 3.02083 9.98958 2.82292 10.1562 2.65625C10.3021 2.51042 10.5 2.4375 10.75 2.4375C10.9792 2.4375 11.1771 2.51042 11.3438 2.65625C11.4896 2.82292 11.5729 3.02083 11.5938 3.25ZM13.9688 4.125C13.9688 2.97917 13.5833 2 12.8125 1.1875C12 0.416667 11.0312 0.03125 9.90625 0.03125C9.48958 0.0104167 8.89583 0 8.125 0C7.375 0 6.625 0 5.875 0C5.10417 0 4.52083 0.0104167 4.125 0.03125C3 0.03125 2.02083 0.416667 1.1875 1.1875C0.416667 2 0.0416667 2.96875 0.0625 4.09375C0.0208333 4.51042 0 5.10417 0 5.875C0 6.625 0 7.375 0 8.125C0 8.875 0.0208333 9.45833 0.0625 9.875C0.0416667 11.0208 0.416667 12 1.1875 12.8125C2 13.5833 2.97917 13.9583 4.125 13.9375C4.52083 13.9583 5.10417 13.9792 5.875 14C6.625 14 7.375 14 8.125 14C8.89583 13.9792 9.48958 13.9583 9.90625 13.9375C11.0312 13.9583 12 13.5833 12.8125 12.8125C13.5833 12 13.9688 11.0208 13.9688 9.875C13.9896 9.45833 14 8.875 14 8.125C14 7.375 14 6.625 14 5.875C14 5.10417 13.9896 4.51042 13.9688 4.09375V4.125ZM12.4688 11.125C12.1979 11.75 11.75 12.1979 11.125 12.4688C10.7083 12.6146 10.1458 12.6979 9.4375 12.7188C8.72917 12.7396 8.08333 12.75 7.5 12.75C7.3125 12.75 7.14583 12.75 7 12.75C6.85417 12.75 6.6875 12.75 6.5 12.75C5.91667 12.75 5.27083 12.7396 4.5625 12.7188C3.875 12.6979 3.3125 12.6146 2.875 12.4688C2.25 12.1979 1.80208 11.75 1.53125 11.125C1.38542 10.6875 1.30208 10.125 1.28125 9.4375C1.26042 8.72917 1.25 8.08333 1.25 7.5C1.25 7.3125 1.25 7.14583 1.25 7C1.25 6.85417 1.25 6.6875 1.25 6.5C1.25 5.91667 1.26042 5.27083 1.28125 4.5625C1.30208 3.85417 1.38542 3.29167 1.53125 2.875C1.80208 2.25 2.25 1.80208 2.875 1.53125C3.3125 1.38542 3.875 1.30208 4.5625 1.28125C5.27083 1.23958 5.91667 1.22917 6.5 1.25C6.6875 1.25 6.85417 1.25 7 1.25C7.14583 1.25 7.3125 1.25 7.5 1.25C8.08333 1.25 8.72917 1.26042 9.4375 1.28125C10.1458 1.30208 10.7083 1.38542 11.125 1.53125C11.75 1.80208 12.1979 2.25 12.4688 2.875C12.6146 3.29167 12.6979 3.85417 12.7188 4.5625C12.7604 5.27083 12.7708 5.91667 12.75 6.5C12.75 6.6875 12.75 6.85417 12.75 7C12.75 7.14583 12.75 7.3125 12.75 7.5C12.7708 8.08333 12.7604 8.72917 12.7188 9.4375C12.6979 10.1458 12.6146 10.7083 12.4688 11.125Z" fill="white"/>
</svg>
