<svg width="24" height="24" viewBox="0 0 24 24" fill="none" xmlns="http://www.w3.org/2000/svg">
<path d="M19.0936 10.0017L19.4697 8.24567L22.2863 5.42903C22.3198 5.3956 22.3463 5.3559 22.3644 5.31221C22.3826 5.26852 22.3919 5.22168 22.3919 5.17439C22.3919 5.12709 22.3826 5.08026 22.3644 5.03657C22.3463 4.99288 22.3198 4.95318 22.2863 4.91975L19.1567 1.79255C19.0893 1.7251 18.9978 1.68721 18.9023 1.68719C18.8069 1.68727 18.7154 1.72526 18.6479 1.79279L15.6432 4.79759H12.4176C12.1925 4.79705 11.9712 4.85573 11.776 4.96775C11.6675 5.02432 11.5689 5.09807 11.4839 5.18615L10.7736 5.89655L9.88075 5.00399C9.83173 4.95485 9.76956 4.92093 9.70171 4.90631L7.94563 4.53023L5.05219 1.63655C4.98337 1.57159 4.89231 1.5354 4.79767 1.5354C4.70303 1.5354 4.61197 1.57159 4.54315 1.63655L1.41595 4.76399C1.34846 4.8315 1.31055 4.92305 1.31055 5.01851C1.31055 5.11397 1.34846 5.20552 1.41595 5.27303L4.49995 8.35703V11.5824C4.49882 11.8072 4.55675 12.0285 4.66795 12.2239C4.72457 12.3323 4.79823 12.4309 4.88611 12.516L6.67387 14.3059C6.87271 14.5014 7.14024 14.6111 7.41907 14.6117C7.50819 14.6118 7.59695 14.6003 7.68307 14.5773C7.70707 14.5716 7.72963 14.5627 7.75291 14.5553V17.4096C7.75288 17.4791 7.77297 17.5471 7.81075 17.6054L8.78731 19.1121V22.8C8.78731 22.8955 8.82524 22.987 8.89275 23.0545C8.96027 23.1221 9.05183 23.16 9.14731 23.16H13.5696C13.665 23.16 13.7566 23.1221 13.8241 23.0545C13.8916 22.987 13.9296 22.8955 13.9296 22.8V18.8426L16.2071 16.565C16.37 16.4067 16.4862 16.2067 16.5431 15.9869C16.5797 15.8711 16.5975 15.7502 16.5957 15.6288V13.1016C16.595 12.9536 16.563 12.8075 16.5019 12.6727L18.9959 10.181C19.0451 10.1319 19.0791 10.0697 19.0936 10.0017ZM7.65427 13.7937C7.61327 13.8353 7.56162 13.8648 7.50499 13.8789C7.44833 13.8945 7.3886 13.8948 7.33175 13.8801C7.2749 13.8653 7.22292 13.8358 7.18099 13.7947L5.39515 12.0069C5.36047 11.9748 5.33129 11.9372 5.30875 11.8956C5.30419 11.8865 5.29963 11.8776 5.29435 11.8689C5.2443 11.7818 5.2186 11.6829 5.21995 11.5824V8.20799C5.21993 8.11258 5.18203 8.02108 5.11459 7.95359L2.17939 5.01839L4.79755 2.39999L7.51195 5.11463C7.56114 5.16361 7.62337 5.19743 7.69123 5.21207L9.44707 5.58815L11.2151 7.35623C11.2115 7.35815 11.2084 7.36079 11.2048 7.36271C11.1473 7.39073 11.0925 7.42399 11.0412 7.46207C11.0304 7.46999 11.021 7.47959 11.0104 7.48799C10.9708 7.51997 10.9334 7.5547 10.8986 7.59191C10.8844 7.60727 10.8712 7.62311 10.858 7.63991C10.8285 7.67588 10.8015 7.71381 10.7772 7.75343C10.7668 7.77023 10.7558 7.78655 10.7462 7.80407C10.7138 7.86229 10.6871 7.92344 10.6663 7.98671C10.6244 8.08975 10.6032 8.19998 10.6036 8.31119C10.4901 8.27164 10.3708 8.25152 10.2506 8.25167C10.0854 8.25055 9.92219 8.28844 9.77436 8.36226C9.62652 8.43607 9.49819 8.54372 9.39979 8.67647C9.25633 8.86206 9.17828 9.08989 9.17779 9.32447V9.63359C9.06472 9.59247 8.94531 9.57151 8.82499 9.57167C8.54056 9.57199 8.26788 9.68512 8.06676 9.88624C7.86564 10.0874 7.75251 10.36 7.75219 10.6445V10.9644C7.59149 10.8549 7.40109 10.7973 7.20666 10.7994C7.01223 10.8015 6.8231 10.8631 6.66475 10.9759C6.6214 11.0055 6.58069 11.0389 6.54307 11.0755C6.39332 11.2288 6.30966 11.4348 6.31006 11.6491C6.31047 11.8634 6.3949 12.069 6.54523 12.2217L7.64923 13.3243C7.71105 13.3866 7.74615 13.4705 7.7471 13.5582C7.74804 13.646 7.71474 13.7306 7.65427 13.7942V13.7937ZM7.05427 11.7129C7.03791 11.6953 7.02865 11.6722 7.02825 11.6481C7.02785 11.624 7.03635 11.6006 7.05211 11.5824C7.06166 11.5746 7.07168 11.5674 7.08211 11.5608C7.12537 11.5292 7.17843 11.5141 7.23183 11.518C7.28523 11.5219 7.33551 11.5446 7.37371 11.5821L7.75075 11.9589V12.408L7.05427 11.7129ZM15.8759 15.6288C15.8775 15.6752 15.8714 15.7216 15.8579 15.7661C15.8539 15.7778 15.8503 15.7901 15.8474 15.8018C15.8233 15.898 15.7723 15.9853 15.7005 16.0536L13.3149 18.4392C13.2475 18.5067 13.2096 18.5982 13.2095 18.6936V22.44H9.50635V19.0056C9.50638 18.9361 9.48629 18.8681 9.44851 18.8097L8.47195 17.304V10.644C8.47208 10.5505 8.50929 10.4608 8.57542 10.3947C8.64156 10.3285 8.73122 10.2913 8.82475 10.2912C8.91737 10.2942 9.00537 10.3323 9.07089 10.3978C9.13642 10.4634 9.17455 10.5514 9.17755 10.644C9.17755 10.6459 9.17755 10.6478 9.17755 10.6497V13.1371C9.17755 13.2326 9.21548 13.3242 9.28299 13.3917C9.3505 13.4592 9.44207 13.4971 9.53755 13.4971C9.63303 13.4971 9.7246 13.4592 9.79211 13.3917C9.85962 13.3242 9.89755 13.2326 9.89755 13.1371V10.643C9.89755 10.6411 9.89755 10.6392 9.89755 10.6373V9.32399C9.89791 9.2464 9.92465 9.17124 9.97339 9.11087C10.0049 9.06705 10.0466 9.03147 10.0948 9.00716C10.143 8.98284 10.1964 8.9705 10.2503 8.97119C10.3439 8.97132 10.4335 9.00853 10.4997 9.07466C10.5658 9.1408 10.603 9.23046 10.6032 9.32399C10.6032 9.32759 10.6032 9.33095 10.6044 9.33455V12.978C10.6044 13.0735 10.6423 13.165 10.7098 13.2325C10.7773 13.3001 10.8689 13.338 10.9644 13.338C11.0598 13.338 11.1514 13.3001 11.2189 13.2325C11.2864 13.165 11.3244 13.0735 11.3244 12.978V9.32375C11.3244 9.32015 11.3244 9.31679 11.3231 9.31319V8.32559C11.3216 8.30476 11.324 8.28381 11.3303 8.26391C11.3379 8.24769 11.3443 8.23093 11.3493 8.21375C11.3711 8.14387 11.4147 8.08278 11.4737 8.03941C11.5326 7.99603 11.6039 7.97264 11.6771 7.97264C11.7504 7.97264 11.8217 7.99603 11.8806 8.03941C11.9396 8.08278 11.9832 8.14387 12.005 8.21375C12.01 8.23074 12.0163 8.24735 12.0237 8.26343C12.0302 8.28348 12.0327 8.30458 12.0311 8.32559V9.09599C12.0312 9.12241 12.0343 9.14873 12.0403 9.17447V12.888C12.0403 12.9835 12.0782 13.075 12.1457 13.1425C12.2132 13.2101 12.3048 13.248 12.4003 13.248C12.4957 13.248 12.5873 13.2101 12.6548 13.1425C12.7223 13.075 12.7603 12.9835 12.7603 12.888V9.03359C12.7627 9.02111 12.7622 9.00791 12.7658 8.99567C12.7801 8.94769 12.8047 8.90341 12.8378 8.8659C12.871 8.82839 12.9119 8.79855 12.9578 8.77847C13.0032 8.75865 13.0522 8.74836 13.1018 8.74823C13.1947 8.74772 13.284 8.78406 13.3501 8.8493C13.4163 8.91454 13.4538 9.00334 13.4546 9.09623V14.5272C13.4538 14.6609 13.4822 14.7932 13.5379 14.9148C13.5379 14.9179 13.5412 14.9208 13.5427 14.9239C13.5441 14.927 13.5446 14.9309 13.5463 14.9345C13.5479 14.9381 13.5544 14.9469 13.5583 14.9537C13.5664 14.9719 13.5757 14.9896 13.5861 15.0067C13.5907 15.0146 13.5974 15.0209 13.6022 15.0285L13.6044 15.0324L13.607 15.0353C13.6775 15.148 13.7714 15.2443 13.8822 15.3176C13.9931 15.391 14.1184 15.4397 14.2497 15.4605C14.2993 15.4698 14.3497 15.4747 14.4002 15.4752C14.6153 15.475 14.8215 15.3895 14.9736 15.2374C15.1257 15.0853 15.2112 14.8791 15.2114 14.664V13.1016C15.2115 13.0132 15.2467 12.9284 15.3092 12.8658C15.3718 12.8033 15.4566 12.7681 15.545 12.768C15.6012 12.7673 15.6564 12.7827 15.7041 12.8124C15.726 12.825 15.7461 12.8406 15.7639 12.8587C15.7701 12.8645 15.7759 12.8693 15.7824 12.8762C15.8118 12.9059 15.835 12.941 15.8507 12.9797C15.8664 13.0184 15.8743 13.0598 15.8738 13.1016L15.8759 15.6288ZM14.4746 14.7L14.489 14.6856C14.4835 14.7047 14.4721 14.7215 14.4564 14.7336C14.4628 14.7233 14.4686 14.712 14.4746 14.7ZM18.7879 7.99199L18.4118 9.74783L16.0027 12.1541C15.9936 12.1495 15.9837 12.1461 15.9743 12.1418C15.959 12.1349 15.9436 12.1284 15.9278 12.1221C15.9038 12.1121 15.8779 12.1034 15.8522 12.0955C15.8366 12.0905 15.821 12.0857 15.8042 12.0816C15.7761 12.0741 15.7473 12.0689 15.7185 12.0641C15.7046 12.0617 15.6911 12.0585 15.677 12.0569C15.6337 12.0511 15.5901 12.0482 15.5464 12.048C15.2671 12.0483 14.9993 12.1594 14.8018 12.3569C14.6043 12.5545 14.4931 12.8223 14.4928 13.1016V13.6629L14.176 13.9797V9.09599C14.1751 8.8122 14.0616 8.54038 13.8605 8.34016C13.6594 8.13994 13.387 8.02767 13.1032 8.02799C13.0418 8.02799 12.9804 8.0332 12.9199 8.04359L11.2826 6.40559L11.993 5.69519C12.0252 5.66051 12.0628 5.63133 12.1044 5.60879C12.1135 5.60423 12.1224 5.59967 12.131 5.59439C12.2179 5.54354 12.3169 5.51702 12.4176 5.51759H15.792C15.8872 5.51763 15.9786 5.47992 16.0461 5.41271L18.9021 2.55671L21.5222 5.17511L18.8853 7.81175C18.8362 7.8612 18.8023 7.92379 18.7879 7.99199Z" fill="#C6B273"/>
</svg>
