<svg width="14" height="11" viewBox="0 0 14 11" fill="none" xmlns="http://www.w3.org/2000/svg">
<path d="M12.25 0H1.75C1.25781 0.0182292 0.847656 0.191406 0.519531 0.519531C0.191406 0.847656 0.0182292 1.25781 0 1.75V8.75C0.0182292 9.24219 0.191406 9.65234 0.519531 9.98047C0.847656 10.3086 1.25781 10.4818 1.75 10.5H12.25C12.7422 10.4818 13.1523 10.3086 13.4805 9.98047C13.8086 9.65234 13.9818 9.24219 14 8.75V1.75C13.9818 1.25781 13.8086 0.847656 13.4805 0.519531C13.1523 0.191406 12.7422 0.0182292 12.25 0ZM1.75 1.3125H12.25C12.5234 1.33073 12.6693 1.47656 12.6875 1.75V2.35156L8.12109 6.125C7.79297 6.39844 7.41927 6.53516 7 6.53516C6.58073 6.53516 6.20703 6.39844 5.87891 6.125L1.3125 2.35156V1.75C1.33073 1.47656 1.47656 1.33073 1.75 1.3125ZM12.25 9.1875H1.75C1.47656 9.16927 1.33073 9.02344 1.3125 8.75V4.07422L5.03125 7.16406C5.61458 7.63802 6.27083 7.875 7 7.875C7.72917 7.875 8.38542 7.63802 8.96875 7.16406L12.6875 4.07422V8.75C12.6693 9.02344 12.5234 9.16927 12.25 9.1875Z" fill="#C6B273"/>
</svg>
