<svg width="24" height="24" viewBox="0 0 24 24" fill="none" xmlns="http://www.w3.org/2000/svg">
<path d="M21.6142 18.3072L10.0798 6.78001C10.6238 6.33521 11.2542 5.85521 11.971 5.34001C12.0132 5.30927 12.0482 5.26972 12.0736 5.22411C12.0989 5.17849 12.1141 5.1279 12.118 5.07585C12.1219 5.0238 12.1144 4.97152 12.096 4.92265C12.0777 4.87378 12.049 4.82947 12.0118 4.79281L10.3126 3.11281C10.2581 3.0587 10.1877 3.02346 10.1117 3.01223C10.0357 3.001 9.95807 3.01438 9.89022 3.05041C9.11883 3.45834 8.3841 3.9321 7.69422 4.46641L6.12222 2.87521C6.05342 2.80935 5.96186 2.77258 5.86662 2.77258C5.77138 2.77258 5.67981 2.80935 5.61102 2.87521L3.82302 4.68481C3.75633 4.75221 3.71893 4.8432 3.71893 4.93801C3.71893 5.03283 3.75633 5.12381 3.82302 5.19121L5.34942 6.72001C3.18805 9.27505 1.93914 12.4771 1.79982 15.8208C1.79567 15.8994 1.81737 15.9771 1.8616 16.0422C1.90583 16.1072 1.97015 16.156 2.04473 16.1811C2.1193 16.2061 2.20003 16.206 2.27456 16.1808C2.34908 16.1557 2.41331 16.1068 2.45742 16.0416C2.49102 15.9936 5.28942 11.8344 7.69422 9.08161L19.267 20.6544C19.3345 20.7218 19.426 20.7597 19.5214 20.7597C19.6168 20.7597 19.7083 20.7218 19.7758 20.6544L21.6142 18.816C21.6816 18.7485 21.7195 18.657 21.7195 18.5616C21.7195 18.4662 21.6816 18.3747 21.6142 18.3072ZM4.57422 4.92721L5.85582 3.63121L7.12302 4.91281C6.86062 5.13681 6.60782 5.36961 6.36462 5.61121C6.17502 5.79841 5.99262 5.99041 5.81502 6.18241L4.57422 4.92721ZM6.87102 6.12721C7.79888 5.21328 8.84886 4.43226 9.99102 3.80641L11.191 5.00641C10.151 5.75344 9.1639 6.57139 8.23662 7.45441C6.33582 9.33601 3.89022 12.72 2.63982 14.4888C3.07468 11.3032 4.56836 8.35641 6.88062 6.12241L6.87102 6.12721ZM19.5214 19.8912L8.17902 8.55361C8.37102 8.34481 8.56062 8.14801 8.74542 7.96561C8.97102 7.74241 9.22542 7.50001 9.53022 7.24561L20.851 18.5616L19.5214 19.8912Z" fill="#C6B273"/>
<path d="M16.4402 7.88164C16.4402 7.78616 16.4023 7.69459 16.3348 7.62708C16.2673 7.55957 16.1757 7.52164 16.0802 7.52164C15.9847 7.52164 15.8932 7.55957 15.8257 7.62708C15.7581 7.69459 15.7202 7.78616 15.7202 7.88164C15.7202 8.81284 16.5002 9.58804 17.5202 9.73684V10.32C17.5202 10.4155 17.5581 10.5071 17.6257 10.5746C17.6932 10.6421 17.7847 10.68 17.8802 10.68C17.9757 10.68 18.0673 10.6421 18.1348 10.5746C18.2023 10.5071 18.2402 10.4155 18.2402 10.32V9.73684C19.2602 9.58564 20.0402 8.81284 20.0402 7.88164C20.0402 6.95044 19.2602 6.17764 18.2402 6.02644V3.71284C18.8594 3.84244 19.3202 4.29604 19.3202 4.83844C19.3202 4.93392 19.3581 5.02548 19.4257 5.093C19.4932 5.16051 19.5847 5.19844 19.6802 5.19844C19.7757 5.19844 19.8673 5.16051 19.9348 5.093C20.0023 5.02548 20.0402 4.93392 20.0402 4.83844C20.0402 3.90724 19.2602 3.13204 18.2402 2.98324V2.40004C18.2402 2.30456 18.2023 2.21299 18.1348 2.14548C18.0673 2.07797 17.9757 2.04004 17.8802 2.04004C17.7847 2.04004 17.6932 2.07797 17.6257 2.14548C17.5581 2.21299 17.5202 2.30456 17.5202 2.40004V2.98324C16.5002 3.13444 15.7202 3.90724 15.7202 4.83844C15.7202 5.76964 16.5002 6.54244 17.5202 6.69124V9.00724C16.901 8.88004 16.4402 8.42404 16.4402 7.88164ZM19.3202 7.88164C19.3202 8.42404 18.8594 8.87764 18.2402 9.00724V6.75844C18.8594 6.88804 19.3202 7.34164 19.3202 7.88164ZM16.4402 4.83604C16.4402 4.29604 16.901 3.84004 17.5202 3.71044V5.95924C16.901 5.83204 16.4402 5.37844 16.4402 4.83844V4.83604Z" fill="#C6B273"/>
<path d="M3.37446 18.7056C3.30622 18.642 3.21596 18.6074 3.12269 18.6091C3.02943 18.6107 2.94044 18.6485 2.87448 18.7144C2.80853 18.7804 2.77074 18.8694 2.7691 18.9627C2.76745 19.0559 2.80207 19.1462 2.86566 19.2144L5.02566 21.3744C5.05862 21.4098 5.09837 21.4382 5.14252 21.4578C5.18668 21.4775 5.23435 21.4881 5.28269 21.489C5.33103 21.4898 5.37904 21.4809 5.42387 21.4628C5.4687 21.4447 5.50942 21.4178 5.5436 21.3836C5.57779 21.3494 5.60474 21.3087 5.62284 21.2638C5.64095 21.219 5.64984 21.171 5.64899 21.1227C5.64813 21.0743 5.63755 21.0267 5.61788 20.9825C5.5982 20.9383 5.56983 20.8986 5.53446 20.8656L3.37446 18.7056Z" fill="#C6B273"/>
<path d="M8.4 16.6801H3.36C3.26452 16.6801 3.17295 16.718 3.10544 16.7855C3.03793 16.853 3 16.9446 3 17.0401C3 17.1355 3.03793 17.2271 3.10544 17.2946C3.17295 17.3621 3.26452 17.4001 3.36 17.4001H8.4C8.49548 17.4001 8.58705 17.3621 8.65456 17.2946C8.72207 17.2271 8.76 17.1355 8.76 17.0401C8.76 16.9446 8.72207 16.853 8.65456 16.7855C8.58705 16.718 8.49548 16.6801 8.4 16.6801Z" fill="#C6B273"/>
</svg>
