<svg width="32" height="32" viewBox="0 0 32 32" fill="none" xmlns="http://www.w3.org/2000/svg">
<g clip-path="url(#clip0_140_510)">
<path d="M20.0004 25.504C21.1377 25.8342 22.3161 26.0012 23.5004 26C25.4049 26.0028 27.2847 25.5685 28.995 24.7307C29.0989 22.2752 27.5612 20.0488 25.228 19.2767C22.8948 18.5045 20.3324 19.374 18.951 21.4067M20.0004 25.504V25.5C20.0004 24.016 19.6204 22.62 18.9524 21.4067M20.0004 25.504V25.6453C17.4343 27.1908 14.4945 28.0051 11.499 28C8.39103 28 5.48302 27.14 3.00036 25.6453L2.99902 25.5C2.99692 21.6176 5.62574 18.2271 9.38634 17.2621C13.1469 16.2971 17.0835 18.0029 18.951 21.4067M16.0004 8.5C16.0004 10.9836 13.984 13 11.5004 13C9.01674 13 7.00036 10.9836 7.00036 8.5C7.00036 6.01638 9.01674 4 11.5004 4C13.984 4 16.0004 6.01638 16.0004 8.5L20.0004 25.504M31.0004 28.504C31.0004 30.4357 29.4321 32.004 27.5004 32.004C25.5687 32.004 24.0004 30.4357 24.0004 28.504C24.0004 26.5723 25.5687 25.004 27.5004 25.004C29.4321 25.004 31.0004 26.5723 31.0004 28.504V28.504" stroke="#C6B273" stroke-width="2" stroke-linecap="round" stroke-linejoin="round"/>
</g>
<defs>
<clipPath id="clip0_140_510">
<rect width="32" height="32" fill="white"/>
</clipPath>
</defs>
</svg>
