<svg width="20" height="18" viewBox="0 0 20 18" fill="none" xmlns="http://www.w3.org/2000/svg">
<path d="M6.5625 1.875C5.98958 1.92708 5.67708 2.23958 5.625 2.8125V14.6875C5.625 15.026 5.57292 15.3385 5.46875 15.625H17.1875C17.7604 15.5729 18.0729 15.2604 18.125 14.6875V2.8125C18.0729 2.23958 17.7604 1.92708 17.1875 1.875H6.5625ZM2.8125 17.5C2.00521 17.474 1.34115 17.2005 0.820312 16.6797C0.299479 16.1589 0.0260417 15.4948 0 14.6875V3.125C0.0520833 2.55208 0.364583 2.23958 0.9375 2.1875C1.51042 2.23958 1.82292 2.55208 1.875 3.125V14.6875C1.92708 15.2604 2.23958 15.5729 2.8125 15.625C3.38542 15.5729 3.69792 15.2604 3.75 14.6875V2.8125C3.77604 2.00521 4.04948 1.34115 4.57031 0.820312C5.09115 0.299479 5.75521 0.0260417 6.5625 0H17.1875C17.9948 0.0260417 18.6589 0.299479 19.1797 0.820312C19.7005 1.34115 19.974 2.00521 20 2.8125V14.6875C19.974 15.4948 19.7005 16.1589 19.1797 16.6797C18.6589 17.2005 17.9948 17.474 17.1875 17.5H2.8125ZM6.875 4.0625C6.92708 3.48958 7.23958 3.17708 7.8125 3.125H11.5625C12.1354 3.17708 12.4479 3.48958 12.5 4.0625V7.1875C12.4479 7.76042 12.1354 8.07292 11.5625 8.125H7.8125C7.23958 8.07292 6.92708 7.76042 6.875 7.1875V4.0625ZM14.6875 3.125H15.9375C16.5104 3.17708 16.8229 3.48958 16.875 4.0625C16.8229 4.63542 16.5104 4.94792 15.9375 5H14.6875C14.1146 4.94792 13.8021 4.63542 13.75 4.0625C13.8021 3.48958 14.1146 3.17708 14.6875 3.125ZM14.6875 6.25H15.9375C16.5104 6.30208 16.8229 6.61458 16.875 7.1875C16.8229 7.76042 16.5104 8.07292 15.9375 8.125H14.6875C14.1146 8.07292 13.8021 7.76042 13.75 7.1875C13.8021 6.61458 14.1146 6.30208 14.6875 6.25ZM7.8125 9.375H15.9375C16.5104 9.42708 16.8229 9.73958 16.875 10.3125C16.8229 10.8854 16.5104 11.1979 15.9375 11.25H7.8125C7.23958 11.1979 6.92708 10.8854 6.875 10.3125C6.92708 9.73958 7.23958 9.42708 7.8125 9.375ZM7.8125 12.5H15.9375C16.5104 12.5521 16.8229 12.8646 16.875 13.4375C16.8229 14.0104 16.5104 14.3229 15.9375 14.375H7.8125C7.23958 14.3229 6.92708 14.0104 6.875 13.4375C6.92708 12.8646 7.23958 12.5521 7.8125 12.5Z" fill="#C6B273"/>
</svg>
