<svg width="24" height="24" viewBox="0 0 24 24" fill="none" xmlns="http://www.w3.org/2000/svg">
<path d="M24 12C24 12.0312 24 12.0469 24 12.0469C24 12.0781 24 12.1094 24 12.1406C23.9688 12.9844 23.625 13.6719 22.9688 14.2031C22.3438 14.7344 21.5938 15 20.7188 15H16.125C15.5 15.0312 14.9688 15.25 14.5312 15.6562C14.125 16.0938 13.9062 16.625 13.875 17.25C13.875 17.4062 13.8906 17.5625 13.9219 17.7188C14.0156 18.1562 14.1719 18.5938 14.3906 19.0312C14.3906 19.0625 14.4062 19.0938 14.4375 19.125C14.75 19.75 14.9375 20.4062 15 21.0938C15 21.8438 14.7656 22.5 14.2969 23.0625C13.8594 23.625 13.2656 23.9375 12.5156 24C12.3281 24 12.1562 24 12 24C9.75 23.9688 7.73438 23.4219 5.95312 22.3594C4.14062 21.2969 2.70312 19.8594 1.64062 18.0469C0.578125 16.2656 0.03125 14.25 0 12C0.03125 9.75 0.578125 7.73438 1.64062 5.95312C2.70312 4.14062 4.14062 2.70312 5.95312 1.64062C7.73438 0.578125 9.75 0.03125 12 0C14.25 0.03125 16.2656 0.578125 18.0469 1.64062C19.8594 2.70312 21.2969 4.14062 22.3594 5.95312C23.4219 7.73438 23.9688 9.75 24 12ZM6 13.5C6 13.0625 5.85938 12.7031 5.57812 12.4219C5.29688 12.1406 4.9375 12 4.5 12C4.0625 12 3.70312 12.1406 3.42188 12.4219C3.14062 12.7031 3 13.0625 3 13.5C3 13.9375 3.14062 14.2969 3.42188 14.5781C3.70312 14.8594 4.0625 15 4.5 15C4.9375 15 5.29688 14.8594 5.57812 14.5781C5.85938 14.2969 6 13.9375 6 13.5ZM6 9C6.4375 9 6.79688 8.85938 7.07812 8.57812C7.35938 8.29688 7.5 7.9375 7.5 7.5C7.5 7.0625 7.35938 6.70312 7.07812 6.42188C6.79688 6.14062 6.4375 6 6 6C5.5625 6 5.20312 6.14062 4.92188 6.42188C4.64062 6.70312 4.5 7.0625 4.5 7.5C4.5 7.9375 4.64062 8.29688 4.92188 8.57812C5.20312 8.85938 5.5625 9 6 9ZM13.5 4.5C13.5 4.0625 13.3594 3.70312 13.0781 3.42188C12.7969 3.14062 12.4375 3 12 3C11.5625 3 11.2031 3.14062 10.9219 3.42188C10.6406 3.70312 10.5 4.0625 10.5 4.5C10.5 4.9375 10.6406 5.29688 10.9219 5.57812C11.2031 5.85938 11.5625 6 12 6C12.4375 6 12.7969 5.85938 13.0781 5.57812C13.3594 5.29688 13.5 4.9375 13.5 4.5ZM18 9C18.4375 9 18.7969 8.85938 19.0781 8.57812C19.3594 8.29688 19.5 7.9375 19.5 7.5C19.5 7.0625 19.3594 6.70312 19.0781 6.42188C18.7969 6.14062 18.4375 6 18 6C17.5625 6 17.2031 6.14062 16.9219 6.42188C16.6406 6.70312 16.5 7.0625 16.5 7.5C16.5 7.9375 16.6406 8.29688 16.9219 8.57812C17.2031 8.85938 17.5625 9 18 9Z" fill="#4B5563"/>
</svg>
