<svg width="14" height="14" viewBox="0 0 14 14" fill="none" xmlns="http://www.w3.org/2000/svg">
<path d="M13.9727 10.5715L13.3438 13.3332C13.2161 13.7525 12.9336 13.9713 12.4961 13.9895C10.181 13.9713 8.08464 13.397 6.20703 12.2668C4.32943 11.1548 2.83464 9.66006 1.72266 7.78245C0.592448 5.90485 0.0182292 3.80849 0 1.49339C0.0182292 1.05589 0.236979 0.773337 0.65625 0.645733L3.41797 0.0168269C3.85547 -0.0560897 4.18359 0.107973 4.40234 0.509014L5.66016 3.46214C5.80599 3.86318 5.72396 4.20042 5.41406 4.47386L3.96484 5.64964C4.42057 6.59756 5.02214 7.44521 5.76953 8.19261C6.51693 8.94 7.36458 9.55068 8.3125 10.0246L9.51562 8.54808C9.78906 8.23818 10.1263 8.15615 10.5273 8.30198L13.4805 9.5598C13.8633 9.79677 14.0273 10.134 13.9727 10.5715Z" fill="#C6B273"/>
</svg>
