<svg width="24" height="24" viewBox="0 0 24 24" fill="none" xmlns="http://www.w3.org/2000/svg">
<path d="M23.1089 8.00073C23.0764 7.95175 23.0322 7.91158 22.9804 7.88381C22.9286 7.85603 22.8707 7.8415 22.8119 7.84152H21.4384C21.3907 7.84125 21.3433 7.85057 21.2993 7.86894C21.2552 7.88731 21.2152 7.91435 21.1818 7.94846L18.7438 10.4554H13.2784L16.1584 5.77182C16.1919 5.71775 16.2104 5.6557 16.2118 5.59211C16.2132 5.52852 16.1976 5.46571 16.1666 5.41019C16.1355 5.35467 16.0902 5.30846 16.0353 5.27637C15.9804 5.24427 15.9179 5.22746 15.8543 5.22766H12.7652C12.6707 5.22775 12.5801 5.26535 12.5133 5.33222L7.39012 10.4554H5.6317C2.73507 10.4554 0.712891 12.0712 0.712891 14.3928C0.712891 14.609 0.798762 14.8163 0.951613 14.9691C1.10446 15.122 1.31178 15.2079 1.52794 15.2079H6.79606L12.8697 21.2815C12.9365 21.3484 13.0271 21.386 13.1216 21.3861H16.2107C16.2743 21.3863 16.3368 21.3695 16.3917 21.3374C16.4466 21.3053 16.492 21.2591 16.523 21.2036C16.554 21.148 16.5697 21.0852 16.5682 21.0216C16.5668 20.958 16.5484 20.896 16.5149 20.8419L13.0456 15.2079H18.1355C18.7477 15.2076 19.3462 15.0272 19.8567 14.6891C20.3671 14.3511 20.7668 13.8704 21.006 13.3069L23.1446 8.33103C23.1659 8.27722 23.1738 8.21902 23.1676 8.16147C23.1614 8.10393 23.1412 8.04875 23.1089 8.00073ZM12.9125 5.94053H15.2079L12.4372 10.4554H8.39764L12.9125 5.94053ZM20.3501 13.0336C20.1648 13.4674 19.8561 13.8372 19.4623 14.097C19.0686 14.3568 18.6072 14.4952 18.1355 14.495H12.4087C12.3451 14.4948 12.2826 14.5116 12.2277 14.5437C12.1728 14.5758 12.1275 14.622 12.0964 14.6775C12.0654 14.733 12.0498 14.7959 12.0512 14.8594C12.0527 14.923 12.0711 14.9851 12.1046 15.0391L15.5715 20.6732H13.2689L7.19527 14.5995C7.12849 14.5327 7.03789 14.4951 6.94339 14.495H1.52794C1.514 14.4947 1.50026 14.4916 1.48754 14.4859C1.47481 14.4802 1.46335 14.472 1.45383 14.4619C1.44431 14.4517 1.43692 14.4397 1.4321 14.4266C1.42728 14.4135 1.42512 14.3996 1.42576 14.3857C1.42576 12.4918 3.15566 11.1683 5.6317 11.1683H18.8959C18.9436 11.1685 18.9909 11.1592 19.035 11.1408C19.0791 11.1225 19.1191 11.0954 19.1525 11.0613L21.5881 8.5544H22.2725L20.3501 13.0336Z" fill="#C6B273"/>
</svg>
