<svg width="32" height="32" viewBox="0 0 32 32" fill="none" xmlns="http://www.w3.org/2000/svg">
<path d="M4.96094 4.09375V18.9766C4.96094 20.6194 6.29469 21.9531 7.9375 21.9531H10.9141M4.96094 4.09375H2.97656M4.96094 4.09375H26.7891M26.7891 4.09375H28.7734M26.7891 4.09375V18.9766C26.7891 20.6194 25.4553 21.9531 23.8125 21.9531H20.8359M10.9141 21.9531H20.8359M10.9141 21.9531L9.59115 25.9219M20.8359 21.9531L22.1589 25.9219M22.1589 25.9219L22.8203 27.9062M22.1589 25.9219H9.59115M9.59115 25.9219L8.92969 27.9062M11.9062 15.0078V16.9922M15.875 12.0312V16.9922M19.8438 9.05469V16.9922" stroke="#C6B273" stroke-width="1.98438" stroke-linecap="round" stroke-linejoin="round"/>
</svg>
