<svg width="30" height="30" viewBox="0 0 30 30" fill="none" xmlns="http://www.w3.org/2000/svg">
<path d="M9.19922 22.5527L7.38281 20.6777C6.875 20.1699 6.69922 19.5645 6.85547 18.8613C7.01172 18.3145 7.26562 17.6504 7.61719 16.8691H1.40625C0.859375 16.8691 0.449219 16.6348 0.175781 16.166C-0.0585938 15.6973 -0.0585938 15.2285 0.175781 14.7598L3.28125 9.54492C4.10156 8.2168 5.3125 7.51367 6.91406 7.43555H11.7188C11.8359 7.2793 11.9531 7.10352 12.0703 6.9082C12.1094 6.86914 12.1289 6.84961 12.1289 6.84961C13.7695 4.50586 15.5664 2.82617 17.5195 1.81055C19.4727 0.794922 21.4062 0.208984 23.3203 0.0527344C25.2344 -0.0644531 26.9141 0.0136719 28.3594 0.287109C29.0625 0.482422 29.5117 0.931641 29.707 1.63477C29.9805 3.08008 30.0586 4.75977 29.9414 6.67383C29.7852 8.58789 29.1992 10.5215 28.1836 12.4746C27.168 14.4277 25.4883 16.2246 23.1445 17.8652C22.9102 18.0215 22.6953 18.1387 22.5 18.2168V23.0801C22.4609 24.6816 21.7773 25.8926 20.4492 26.7129L15.2344 29.8184C14.7656 30.0527 14.2969 30.0527 13.8281 29.8184C13.3594 29.5449 13.125 29.1348 13.125 28.5879V22.3184C12.3047 22.5918 11.6016 22.8262 11.0156 23.0215C10.3125 23.2168 9.70703 23.0605 9.19922 22.5527ZM22.5 9.7793C23.1641 9.7793 23.7109 9.56445 24.1406 9.13477C24.6094 8.70508 24.8438 8.13867 24.8438 7.43555C24.8438 6.81055 24.6094 6.26367 24.1406 5.79492C23.7109 5.36523 23.1641 5.13086 22.5 5.0918C21.8359 5.13086 21.2891 5.36523 20.8594 5.79492C20.3906 6.26367 20.1562 6.81055 20.1562 7.43555C20.1562 8.13867 20.3906 8.70508 20.8594 9.13477C21.2891 9.56445 21.8359 9.7793 22.5 9.7793Z" fill="#C6B273"/>
</svg>
