<svg width="16" height="16" viewBox="0 0 16 16" fill="none" xmlns="http://www.w3.org/2000/svg">
<path d="M7.75 0C6.3125 0.0208333 5.01042 0.375 3.84375 1.0625C2.67708 1.75 1.75 2.67708 1.0625 3.84375C0.375 5.01042 0.0208333 6.3125 0 7.75C0.0208333 9.1875 0.375 10.4896 1.0625 11.6562C1.75 12.8229 2.67708 13.75 3.84375 14.4375C5.01042 15.125 6.3125 15.4792 7.75 15.5C9.1875 15.4792 10.4896 15.125 11.6562 14.4375C12.8229 13.75 13.75 12.8229 14.4375 11.6562C15.125 10.4896 15.4792 9.1875 15.5 7.75C15.4792 6.3125 15.125 5.01042 14.4375 3.84375C13.75 2.67708 12.8229 1.75 11.6562 1.0625C10.4896 0.375 9.1875 0.0208333 7.75 0ZM10.9062 11.4062C10.7812 11.4062 10.6667 11.3646 10.5625 11.2812C9.58333 10.7188 8.54167 10.3854 7.4375 10.2812C6.33333 10.1979 5.21875 10.2812 4.09375 10.5312C4.07292 10.5312 4.05208 10.5417 4.03125 10.5625C3.90625 10.5833 3.80208 10.5938 3.71875 10.5938C3.40625 10.5729 3.25 10.4167 3.25 10.125C3.27083 9.8125 3.40625 9.63542 3.65625 9.59375C4.94792 9.30208 6.22917 9.19792 7.5 9.28125C8.75 9.38542 9.9375 9.76042 11.0625 10.4062C11.2708 10.4896 11.375 10.6667 11.375 10.9375C11.3333 11.2292 11.1771 11.3854 10.9062 11.4062ZM11.75 9.34375C11.6042 9.34375 11.4896 9.3125 11.4062 9.25C11.3854 9.22917 11.3646 9.21875 11.3438 9.21875C10.3438 8.63542 9.1875 8.25 7.875 8.0625C6.54167 7.875 5.21875 7.95833 3.90625 8.3125C3.86458 8.3125 3.82292 8.32292 3.78125 8.34375C3.69792 8.36458 3.61458 8.375 3.53125 8.375C3.15625 8.35417 2.94792 8.15625 2.90625 7.78125C2.90625 7.44792 3.07292 7.22917 3.40625 7.125C3.82292 7 4.28125 6.89583 4.78125 6.8125C5.26042 6.75 5.82292 6.71875 6.46875 6.71875C8.55208 6.71875 10.3958 7.1875 12 8.125C12.2292 8.27083 12.3438 8.47917 12.3438 8.75C12.3021 9.125 12.1042 9.32292 11.75 9.34375ZM12.7188 6.96875C12.5729 6.96875 12.4375 6.92708 12.3125 6.84375C11.125 6.17708 9.69792 5.77083 8.03125 5.625C6.38542 5.45833 4.88542 5.5625 3.53125 5.9375C3.51042 5.9375 3.48958 5.9375 3.46875 5.9375C3.36458 5.97917 3.25 6 3.125 6C2.66667 5.95833 2.42708 5.71875 2.40625 5.28125C2.44792 4.84375 2.625 4.59375 2.9375 4.53125C4.04167 4.19792 5.27083 4.03125 6.625 4.03125C7.77083 4.03125 8.90625 4.15625 10.0312 4.40625C11.1354 4.65625 12.1354 5.03125 13.0312 5.53125C13.2812 5.65625 13.4167 5.89583 13.4375 6.25C13.375 6.70833 13.1354 6.94792 12.7188 6.96875Z" fill="white"/>
</svg>
