<svg width="15" height="14" viewBox="0 0 15 14" fill="none" xmlns="http://www.w3.org/2000/svg">
<path d="M14.5537 2.84375L12.9678 0.355469C12.8219 0.11849 12.6032 0 12.3115 0H2.57715C2.28548 0 2.06673 0.11849 1.9209 0.355469L0.334961 2.84375C-0.0478516 3.51823 -0.102539 4.19271 0.170898 4.86719C0.462565 5.54167 0.991211 5.95182 1.75684 6.09766C1.86621 6.11589 1.97559 6.125 2.08496 6.125C2.83236 6.10677 3.43392 5.84245 3.88965 5.33203C4.32715 5.84245 4.9196 6.10677 5.66699 6.125C6.39616 6.10677 6.98861 5.84245 7.44434 5.33203C7.90006 5.84245 8.49251 6.10677 9.22168 6.125C9.95085 6.10677 10.5433 5.84245 10.999 5.33203C11.4548 5.84245 12.0563 6.10677 12.8037 6.125C12.9131 6.125 13.0225 6.11589 13.1318 6.09766C13.8975 5.95182 14.4261 5.54167 14.7178 4.86719C14.9912 4.19271 14.9365 3.51823 14.5537 2.84375ZM13.2412 6.97266C13.0954 6.99089 12.9404 7 12.7764 7C12.4482 7 12.1292 6.95443 11.8193 6.86328V10.5H3.06934V6.86328C2.75944 6.95443 2.43132 7 2.08496 7C1.93913 7 1.79329 6.99089 1.64746 6.97266C1.53809 6.95443 1.42871 6.9362 1.31934 6.91797V10.5V12.25C1.33757 12.7422 1.51074 13.1523 1.83887 13.4805C2.16699 13.8086 2.57715 13.9818 3.06934 14H11.8193C12.3115 13.9818 12.7217 13.8086 13.0498 13.4805C13.3779 13.1523 13.5511 12.7422 13.5693 12.25V10.5V6.91797C13.46 6.9362 13.3506 6.95443 13.2412 6.97266Z" fill="#9CA3AF"/>
</svg>
