<svg width="24" height="24" viewBox="0 0 24 24" fill="none" xmlns="http://www.w3.org/2000/svg">
<path opacity="0.8" d="M21 12C21 10.375 20.5938 8.875 19.7812 7.5C19 6.125 17.9062 5.03125 16.5 4.21875C15.0938 3.40625 13.5938 3 12 3C10.4062 3 8.90625 3.40625 7.5 4.21875C6.09375 5.03125 5 6.125 4.21875 7.5C3.40625 8.875 3 10.375 3 12C3 13.625 3.40625 15.125 4.21875 16.5C5 17.875 6.09375 18.9688 7.5 19.7812C8.90625 20.5938 10.4062 21 12 21C13.5938 21 15.0938 20.5938 16.5 19.7812C17.9062 18.9688 19 17.875 19.7812 16.5C20.5938 15.125 21 13.625 21 12ZM0 12C0.03125 9.8125 0.5625 7.8125 1.59375 6C2.65625 4.1875 4.125 2.71875 6 1.59375C7.90625 0.53125 9.90625 0 12 0C14.0938 0 16.0938 0.53125 18 1.59375C19.875 2.71875 21.3438 4.1875 22.4062 6C23.4375 7.8125 23.9688 9.8125 24 12C23.9688 14.1875 23.4375 16.1875 22.4062 18C21.3438 19.8125 19.875 21.2812 18 22.4062C16.0938 23.4688 14.0938 24 12 24C9.90625 24 7.90625 23.4688 6 22.4062C4.125 21.2812 2.65625 19.8125 1.59375 18C0.5625 16.1875 0.03125 14.1875 0 12ZM12 15.75C13.4062 15.7188 14.4844 15.0938 15.2344 13.875C15.9219 12.625 15.9219 11.375 15.2344 10.125C14.4844 8.90625 13.4062 8.28125 12 8.25C10.5938 8.28125 9.51562 8.90625 8.76562 10.125C8.07812 11.375 8.07812 12.625 8.76562 13.875C9.51562 15.0938 10.5938 15.7188 12 15.75ZM12 5.25C13.2188 5.25 14.3438 5.54688 15.375 6.14062C16.4062 6.73438 17.2344 7.5625 17.8594 8.625C18.4531 9.6875 18.75 10.8125 18.75 12C18.75 13.1875 18.4531 14.3125 17.8594 15.375C17.2344 16.4375 16.4062 17.2656 15.375 17.8594C14.3438 18.4531 13.2188 18.75 12 18.75C10.7812 18.75 9.65625 18.4531 8.625 17.8594C7.59375 17.2656 6.76562 16.4375 6.14062 15.375C5.54688 14.3125 5.25 13.1875 5.25 12C5.25 10.8125 5.54688 9.6875 6.14062 8.625C6.76562 7.5625 7.59375 6.73438 8.625 6.14062C9.65625 5.54688 10.7812 5.25 12 5.25ZM10.5 12C10.5 11.5625 10.6406 11.2031 10.9219 10.9219C11.2031 10.6406 11.5625 10.5 12 10.5C12.4375 10.5 12.7969 10.6406 13.0781 10.9219C13.3594 11.2031 13.5 11.5625 13.5 12C13.5 12.4375 13.3594 12.7969 13.0781 13.0781C12.7969 13.3594 12.4375 13.5 12 13.5C11.5625 13.5 11.2031 13.3594 10.9219 13.0781C10.6406 12.7969 10.5 12.4375 10.5 12Z" fill="#0B1930"/>
</svg>
