<svg width="21" height="6" viewBox="0 0 21 6" fill="none" xmlns="http://www.w3.org/2000/svg">
<path d="M0 2.625C0.03125 1.625 0.46875 0.875 1.3125 0.375C2.1875 -0.125 3.0625 -0.125 3.9375 0.375C4.78125 0.875 5.21875 1.625 5.25 2.625C5.21875 3.625 4.78125 4.375 3.9375 4.875C3.0625 5.375 2.1875 5.375 1.3125 4.875C0.46875 4.375 0.03125 3.625 0 2.625V2.625V2.625M7.5 2.625C7.53125 1.625 7.96875 0.875 8.8125 0.375C9.6875 -0.125 10.5625 -0.125 11.4375 0.375C12.2812 0.875 12.7188 1.625 12.75 2.625C12.7188 3.625 12.2812 4.375 11.4375 4.875C10.5625 5.375 9.6875 5.375 8.8125 4.875C7.96875 4.375 7.53125 3.625 7.5 2.625V2.625V2.625M17.625 0C18.625 0.03125 19.375 0.46875 19.875 1.3125C20.375 2.1875 20.375 3.0625 19.875 3.9375C19.375 4.78125 18.625 5.21875 17.625 5.25C16.625 5.21875 15.875 4.78125 15.375 3.9375C14.875 3.0625 14.875 2.1875 15.375 1.3125C15.875 0.46875 16.625 0.03125 17.625 0V0V0" fill="#4B5563"/>
</svg>
