<svg width="13" height="14" viewBox="0 0 13 14" fill="none" xmlns="http://www.w3.org/2000/svg">
<path d="M6.125 7C5.48698 7 4.90365 6.84505 4.375 6.53516C3.84635 6.22526 3.41797 5.79688 3.08984 5.25C2.77995 4.70312 2.625 4.11979 2.625 3.5C2.625 2.88021 2.77995 2.29688 3.08984 1.75C3.41797 1.20312 3.84635 0.77474 4.375 0.464844C4.90365 0.154948 5.48698 0 6.125 0C6.76302 0 7.34635 0.154948 7.875 0.464844C8.40365 0.77474 8.83203 1.20312 9.16016 1.75C9.47005 2.29688 9.625 2.88021 9.625 3.5C9.625 4.11979 9.47005 4.70312 9.16016 5.25C8.83203 5.79688 8.40365 6.22526 7.875 6.53516C7.34635 6.84505 6.76302 7 6.125 7ZM5.71484 9.81641L5.22266 8.96875C5.13151 8.82292 5.1224 8.67708 5.19531 8.53125C5.28646 8.40365 5.41406 8.33073 5.57812 8.3125H6.125H6.67188C6.83594 8.33073 6.96354 8.40365 7.05469 8.53125C7.1276 8.67708 7.11849 8.82292 7.02734 8.96875L6.53516 9.81641L7.4375 13.207L8.42188 9.1875C8.51302 8.95052 8.67708 8.85026 8.91406 8.88672C9.89844 9.14193 10.6914 9.65234 11.293 10.418C11.9128 11.2018 12.2318 12.1133 12.25 13.1523C12.25 13.3893 12.168 13.5898 12.0039 13.7539C11.8398 13.918 11.6393 14 11.4023 14H7.82031C7.7474 14 7.69271 13.9909 7.65625 13.9727V14H4.59375V13.9727C4.55729 13.9909 4.51172 14 4.45703 14H0.847656C0.610677 14 0.410156 13.918 0.246094 13.7539C0.0820312 13.5898 0 13.3893 0 13.1523C0.0182292 12.1133 0.33724 11.2018 0.957031 10.418C1.55859 9.65234 2.35156 9.14193 3.33594 8.88672C3.57292 8.85026 3.73698 8.95052 3.82812 9.1875L4.8125 13.207L5.71484 9.81641Z" fill="#9CA3AF"/>
</svg>
