<svg width="38" height="30" viewBox="0 0 38 30" fill="none" xmlns="http://www.w3.org/2000/svg">
<path d="M18.75 18.75C20.4688 18.7109 21.8945 18.125 23.0273 16.9922C24.1602 15.8203 24.7461 14.375 24.7852 12.6562C24.7461 10.9375 24.1602 9.49219 23.0273 8.32031C21.8555 7.1875 20.4297 6.60156 18.75 6.5625C17.0312 6.60156 15.6055 7.1875 14.4727 8.32031C13.3398 9.49219 12.7539 10.9375 12.7148 12.6562C12.7148 14.375 13.2812 15.8203 14.4141 16.9922C15.5859 18.125 17.0312 18.7109 18.75 18.75ZM21.6797 20.625H15.8203C13.4766 20.6641 11.5234 21.4258 9.96094 22.9102C8.39844 24.3945 7.57812 26.2305 7.5 28.418C7.5 28.8867 7.65625 29.2578 7.96875 29.5312C8.28125 29.8438 8.67188 30 9.14062 30H28.3594C28.8281 30 29.2188 29.8438 29.5312 29.5312C29.8438 29.2578 30 28.8867 30 28.418C29.9219 26.2305 29.1016 24.3945 27.5391 22.9102C25.9766 21.4258 24.0234 20.6641 21.6797 20.625ZM30 9.375C31.3281 9.33594 32.4414 8.88672 33.3398 8.02734C34.1992 7.12891 34.6484 6.01562 34.6875 4.6875C34.6484 3.35938 34.1992 2.24609 33.3398 1.34766C32.4414 0.488281 31.3281 0.0390625 30 0C28.6719 0.0390625 27.5586 0.488281 26.6602 1.34766C25.8008 2.24609 25.3516 3.35938 25.3125 4.6875C25.3516 6.01562 25.8008 7.12891 26.6602 8.02734C27.5586 8.88672 28.6719 9.33594 30 9.375ZM10.7812 12.6562C10.7812 12.4219 10.8008 12.1875 10.8398 11.9531C10.8398 11.875 10.8594 11.7969 10.8984 11.7188C10.2344 11.4062 9.53125 11.25 8.78906 11.25H5.15625C3.71094 11.2891 2.5 11.8164 1.52344 12.832C0.546875 13.8867 0.0390625 15.1758 0 16.6992C0.078125 17.3633 0.429688 17.7344 1.05469 17.8125H12.7148C11.4648 16.3672 10.8203 14.6484 10.7812 12.6562ZM7.5 9.375C8.82812 9.33594 9.94141 8.88672 10.8398 8.02734C11.6992 7.12891 12.1484 6.01562 12.1875 4.6875C12.1484 3.35938 11.6992 2.24609 10.8398 1.34766C9.94141 0.488281 8.82812 0.0390625 7.5 0C6.17188 0.0390625 5.05859 0.488281 4.16016 1.34766C3.30078 2.24609 2.85156 3.35938 2.8125 4.6875C2.85156 6.01562 3.30078 7.12891 4.16016 8.02734C5.05859 8.88672 6.17188 9.33594 7.5 9.375ZM32.3438 11.25H28.7109C27.9688 11.25 27.2656 11.4062 26.6016 11.7188C26.6016 11.8359 26.6211 11.9336 26.6602 12.0117C26.6992 12.207 26.7188 12.4219 26.7188 12.6562C26.6797 14.6484 26.0352 16.3672 24.7852 17.8125H36.4453C37.0703 17.7344 37.4219 17.3633 37.5 16.6992C37.4609 15.1758 36.9531 13.8867 35.9766 12.832C35 11.8164 33.7891 11.2891 32.3438 11.25Z" fill="#C6B273"/>
</svg>
