<svg width="18" height="12" viewBox="0 0 18 12" fill="none" xmlns="http://www.w3.org/2000/svg">
<path d="M16.7188 1.875C16.4688 1.10417 15.9583 0.59375 15.1875 0.34375C14.6875 0.239583 13.9167 0.15625 12.875 0.09375C11.8333 0.0520833 10.8646 0.0208333 9.96875 0C9.07292 0 8.59375 0 8.53125 0C8.46875 0 7.98958 0 7.09375 0C6.19792 0.0208333 5.22917 0.0520833 4.1875 0.09375C3.14583 0.15625 2.375 0.239583 1.875 0.34375C1.10417 0.59375 0.59375 1.10417 0.34375 1.875C0.239583 2.35417 0.15625 2.90625 0.09375 3.53125C0.0520833 4.17708 0.0208333 4.75 0 5.25C0 5.72917 0 5.97917 0 6C0 6.04167 0 6.30208 0 6.78125C0.0208333 7.28125 0.0520833 7.84375 0.09375 8.46875C0.15625 9.11458 0.239583 9.67708 0.34375 10.1562C0.59375 10.9271 1.10417 11.4271 1.875 11.6562C2.375 11.7604 3.14583 11.8438 4.1875 11.9062C5.22917 11.9479 6.19792 11.9792 7.09375 12C7.98958 12 8.46875 12 8.53125 12C8.59375 12 9.07292 12 9.96875 12C10.8646 11.9792 11.8333 11.9479 12.875 11.9062C13.9167 11.8438 14.6875 11.7604 15.1875 11.6562C15.9583 11.4271 16.4688 10.9271 16.7188 10.1562C16.8229 9.67708 16.9062 9.11458 16.9688 8.46875C17.0104 7.84375 17.0417 7.28125 17.0625 6.78125C17.0625 6.30208 17.0625 6.04167 17.0625 6C17.0625 5.97917 17.0625 5.72917 17.0625 5.25C17.0417 4.75 17.0104 4.17708 16.9688 3.53125C16.9062 2.90625 16.8229 2.35417 16.7188 1.875ZM6.78125 8.5625V3.46875L11.25 6L6.78125 8.5625Z" fill="white"/>
</svg>
